<svg width="125" height="55" viewBox="0 0 125 55" fill="none" xmlns="http://www.w3.org/2000/svg">
<g clip-path="url(#clip0_843_793)">
<path fill-rule="evenodd" clip-rule="evenodd" d="M77.1261 43.0963C69.9309 48.3949 59.5017 51.2219 50.5223 51.2219C37.9319 51.2219 26.5973 46.5694 18.0221 38.8314C17.3484 38.223 17.952 37.3937 18.7605 37.8676C28.0147 43.247 39.4571 46.4832 51.2769 46.4832C59.2483 46.4832 68.0175 44.8355 76.0806 41.4161C77.2987 40.8992 78.3173 42.2131 77.1261 43.0963Z" fill="#FF9900"/>
<path fill-rule="evenodd" clip-rule="evenodd" d="M80.1169 39.6769C79.2007 38.503 74.0373 39.1223 71.7197 39.3969C71.0137 39.483 70.9058 38.8691 71.5418 38.4275C75.6542 35.5359 82.4022 36.3706 83.189 37.3399C83.976 38.3145 82.9842 45.0725 79.1198 48.2979C78.5269 48.7934 77.961 48.5295 78.2251 47.8726C79.0929 45.7078 81.0385 40.8561 80.1169 39.6769Z" fill="#FF9900"/>
<path fill-rule="evenodd" clip-rule="evenodd" d="M71.8817 18.0153V15.2046C71.8817 14.7792 72.205 14.4939 72.5931 14.4939H85.1888C85.593 14.4939 85.9164 14.7847 85.9164 15.2046V17.6115C85.9111 18.0153 85.5715 18.543 84.9679 19.3776L78.4409 28.6874C80.8663 28.6281 83.4264 28.9888 85.6254 30.2272C86.1213 30.5072 86.256 30.9165 86.2937 31.3203V34.3195C86.2937 34.7287 85.841 35.2079 85.3667 34.9602C81.4915 32.9302 76.3443 32.7095 72.0595 34.9818C71.623 35.2187 71.1648 34.7448 71.1648 34.3357V31.4873C71.1648 31.0296 71.1702 30.2488 71.6284 29.5542L79.1901 18.7207H72.6093C72.205 18.7207 71.8817 18.4353 71.8817 18.0153Z" fill="white"/>
<path fill-rule="evenodd" clip-rule="evenodd" d="M25.9345 35.5524H22.1025C21.7359 35.5254 21.4449 35.2508 21.418 34.9009V15.2529C21.418 14.86 21.7468 14.5476 22.1563 14.5476H25.7298C26.1016 14.5638 26.398 14.8491 26.425 15.2045V17.7729H26.4951C27.4275 15.2907 29.1792 14.1331 31.5398 14.1331C33.9383 14.1331 35.4366 15.2907 36.5146 17.7729C37.4415 15.2907 39.5489 14.1331 41.8072 14.1331C43.4134 14.1331 45.1704 14.7953 46.2429 16.2814C47.4556 17.9345 47.2077 20.3359 47.2077 22.4412L47.2023 34.8417C47.2023 35.2347 46.8735 35.5524 46.4639 35.5524H42.6373C42.2545 35.5254 41.9473 35.2185 41.9473 34.8417V24.4281C41.9473 23.5989 42.0229 21.5312 41.8396 20.7451C41.554 19.426 40.697 19.0544 39.5867 19.0544C38.6596 19.0544 37.6895 19.6736 37.2961 20.6644C36.9026 21.6551 36.9403 23.3135 36.9403 24.4281V34.8417C36.9403 35.2347 36.6116 35.5524 36.2019 35.5524H32.3752C31.9871 35.5254 31.6854 35.2185 31.6854 34.8417L31.6799 24.4281C31.6799 22.2367 32.0411 19.0113 29.3193 19.0113C26.5651 19.0113 26.673 22.1559 26.673 24.4281V34.8417C26.673 35.2347 26.3442 35.5524 25.9345 35.5524Z" fill="white"/>
<path fill-rule="evenodd" clip-rule="evenodd" d="M96.7604 14.1331C102.447 14.1331 105.524 19.0113 105.524 25.2143C105.524 31.2071 102.123 35.9616 96.7604 35.9616C91.1767 35.9616 88.137 31.0833 88.137 25.0043C88.137 18.8875 91.2145 14.1331 96.7604 14.1331ZM96.7928 18.1445C93.9686 18.1445 93.7908 21.9889 93.7908 24.385C93.7908 26.7864 93.753 31.9125 96.7604 31.9125C99.7302 31.9125 99.8703 27.7772 99.8703 25.2573C99.8703 23.5989 99.8003 21.6174 99.299 20.0451C98.8678 18.6775 98.0109 18.1445 96.7928 18.1445Z" fill="white"/>
<path fill-rule="evenodd" clip-rule="evenodd" d="M112.898 35.5524H109.082C108.699 35.5254 108.392 35.2185 108.392 34.8417L108.386 15.1883C108.419 14.8276 108.737 14.5476 109.125 14.5476H112.677C113.011 14.5638 113.286 14.7899 113.361 15.0968V18.1013H113.431C114.503 15.4145 116.007 14.1331 118.654 14.1331C120.373 14.1331 122.049 14.7522 123.127 16.4484C124.13 18.0206 124.13 20.6644 124.13 22.565V34.9332C124.087 35.2778 123.768 35.5524 123.392 35.5524H119.548C119.198 35.5254 118.907 35.267 118.87 34.9332V24.2612C118.87 22.1127 119.118 18.9683 116.471 18.9683C115.539 18.9683 114.682 19.5928 114.256 20.5406C113.717 21.7412 113.647 22.9367 113.647 24.2612V34.8417C113.642 35.2347 113.307 35.5524 112.898 35.5524Z" fill="white"/>
<path fill-rule="evenodd" clip-rule="evenodd" d="M61.8412 26.1672C61.8412 27.6587 61.8789 28.9025 61.1244 30.2272C60.5153 31.3041 59.5452 31.9663 58.4726 31.9663C57.0012 31.9663 56.1388 30.8463 56.1388 29.1933C56.1388 25.9304 59.0655 25.3381 61.8412 25.3381V26.1672ZM65.7056 35.4986C65.4523 35.7247 65.0858 35.7409 64.8002 35.5901C63.5282 34.5347 63.2964 34.0448 62.6011 33.0379C60.4991 35.1808 59.0062 35.8216 56.2844 35.8216C53.056 35.8216 50.5498 33.8348 50.5498 29.8557C50.5498 26.7489 52.2314 24.6327 54.6351 23.5989C56.7156 22.6836 59.6206 22.522 61.8412 22.2689V21.7736C61.8412 20.8636 61.9113 19.7867 61.3723 19.0006C60.9088 18.2952 60.0141 18.0045 59.2218 18.0045C57.7612 18.0045 56.4623 18.7529 56.1443 20.3036C56.0796 20.6483 55.8263 20.9875 55.4759 21.0036L51.7625 20.6051C51.4498 20.5352 51.0995 20.282 51.1911 19.8029C52.0427 15.3014 56.1173 13.9446 59.7608 13.9446C61.6256 13.9446 64.0617 14.4399 65.5331 15.8507C67.398 17.5899 67.2201 19.9105 67.2201 22.4358V28.4018C67.2201 30.1949 67.9639 30.981 68.6646 31.9502C68.9071 32.2948 68.961 32.7094 68.6484 32.9678C67.8669 33.6194 66.4763 34.8309 65.711 35.5093L65.7056 35.4986Z" fill="white"/>
<path fill-rule="evenodd" clip-rule="evenodd" d="M11.6032 26.1672C11.6032 27.6587 11.6409 28.9025 10.8864 30.2271C10.2773 31.3041 9.31256 31.9663 8.23463 31.9663C6.76323 31.9663 5.90628 30.8463 5.90628 29.1933C5.90628 25.9304 8.83288 25.3381 11.6032 25.3381V26.1672ZM15.4676 35.4986C15.2143 35.7247 14.8478 35.7409 14.5621 35.5901C13.2901 34.5347 13.0637 34.0447 12.3632 33.0379C10.2611 35.1808 8.7736 35.8216 6.0464 35.8216C2.82337 35.8216 0.311768 33.8347 0.311768 29.8556C0.311768 26.7487 1.99874 24.6327 4.39716 23.5989C6.47758 22.6836 9.38263 22.522 11.6032 22.2689V21.7736C11.6032 20.8636 11.6732 19.7867 11.1397 19.0005C10.6708 18.2952 9.77608 18.0045 8.98919 18.0045C7.52858 18.0045 6.22426 18.7529 5.90628 20.3036C5.8416 20.6483 5.58828 20.9875 5.24334 21.0036L1.52445 20.6051C1.21185 20.5352 0.866906 20.282 0.953141 19.8029C1.81011 15.3014 5.87932 13.9446 9.52276 13.9446C11.3876 13.9446 13.8237 14.4399 15.2952 15.8507C17.1599 17.5899 16.9821 19.9105 16.9821 22.4358V28.4018C16.9821 30.1948 17.7259 30.981 18.4265 31.9502C18.6745 32.2948 18.7284 32.7094 18.4158 32.9678C17.6342 33.6194 16.2437 34.8309 15.4783 35.5093L15.4676 35.4986Z" fill="white"/>
</g>
<defs>
<clipPath id="clip0_843_793">
<rect width="124.376" height="54.2205" fill="white" transform="translate(0.311768 0.389648)"/>
</clipPath>
</defs>
</svg>
