<svg width="18" height="18" viewBox="0 0 18 18" fill="none" xmlns="http://www.w3.org/2000/svg">
<g clip-path="url(#clip0_3_5326)">
<path d="M0 0H18V6H0V0Z" fill="#FF9933"/>
<path d="M0 6H18V12H0V6Z" fill="white"/>
<path d="M0 12H18V18H0V12Z" fill="#128807"/>
<path d="M9.00007 11.4C9.99419 11.4 10.8001 10.3255 10.8001 9.00004C10.8001 7.67455 9.99419 6.60004 9.00007 6.60004C8.00596 6.60004 7.20007 7.67455 7.20007 9.00004C7.20007 10.3255 8.00596 11.4 9.00007 11.4Z" fill="#000088"/>
<path d="M9.00005 11.1C9.8699 11.1 10.575 10.1598 10.575 9.00002C10.575 7.84023 9.8699 6.90002 9.00005 6.90002C8.1302 6.90002 7.42505 7.84023 7.42505 9.00002C7.42505 10.1598 8.1302 11.1 9.00005 11.1Z" fill="white"/>
<path d="M9.00006 9.42002C9.17403 9.42002 9.31506 9.23198 9.31506 9.00002C9.31506 8.76806 9.17403 8.58002 9.00006 8.58002C8.82609 8.58002 8.68506 8.76806 8.68506 9.00002C8.68506 9.23198 8.82609 9.42002 9.00006 9.42002Z" fill="#000088"/>
<path d="M10.5513 9.37828C10.5944 9.38585 10.634 9.34538 10.6396 9.28788C10.6453 9.23039 10.615 9.17765 10.5719 9.17008C10.5287 9.16251 10.4892 9.20298 10.4835 9.26047C10.4778 9.31797 10.5082 9.37071 10.5513 9.37828Z" fill="#000088"/>
<path d="M9.00004 11.1001L9.05404 9.84005L9.00004 9.24005L8.94604 9.84005L9.00004 11.1001Z" fill="#000088"/>
<path d="M10.4167 9.87568C10.4522 9.91169 10.4983 9.90865 10.5195 9.86889C10.5408 9.82913 10.5291 9.76771 10.4935 9.7317C10.4579 9.69569 10.4119 9.69873 10.3906 9.73849C10.3694 9.77825 10.3811 9.83967 10.4167 9.87568Z" fill="#000088"/>
<path d="M8.5886 11.0091L8.8867 9.85634L8.95728 9.25127L8.79001 9.78031L8.5886 11.0091Z" fill="#000088"/>
<path d="M10.203 10.3532C10.2383 10.3932 10.2877 10.3922 10.3134 10.3509C10.3392 10.3097 10.3315 10.2437 10.2962 10.2037C10.261 10.1637 10.2116 10.1647 10.1858 10.206C10.1601 10.2472 10.1678 10.3132 10.203 10.3532Z" fill="#000088"/>
<path d="M8.21851 10.8121L8.73568 9.77242L8.90422 9.21447L8.63036 9.68724L8.21851 10.8121Z" fill="#000088"/>
<path d="M9.89615 10.7212C9.92248 10.7721 9.97191 10.7886 10.0066 10.7582C10.0412 10.7278 10.048 10.6619 10.0217 10.611C9.99534 10.5601 9.9459 10.5435 9.91124 10.574C9.87659 10.6044 9.86983 10.6703 9.89615 10.7212Z" fill="#000088"/>
<path d="M7.88591 10.4726L8.59248 9.66161L8.87328 9.18207L8.51707 9.53515L7.88591 10.4726Z" fill="#000088"/>
<path d="M9.52643 10.9873C9.54116 11.037 9.58723 11.0562 9.62932 11.0302C9.67142 11.0042 9.69361 10.9427 9.67889 10.893C9.66416 10.8433 9.61809 10.8241 9.57599 10.8501C9.5339 10.8762 9.51171 10.9376 9.52643 10.9873Z" fill="#000088"/>
<path d="M7.63222 10.059L8.47894 9.47027L8.84783 9.11109L8.43245 9.36345L7.63222 10.059Z" fill="#000088"/>
<path d="M9.12268 11.1011C9.12572 11.1557 9.16528 11.1914 9.21103 11.1809C9.25678 11.1705 9.2914 11.1177 9.28835 11.0631C9.28531 11.0085 9.24575 10.9728 9.2 10.9833C9.15425 10.9937 9.11963 11.0465 9.12268 11.1011Z" fill="#000088"/>
<path d="M7.47305 9.54253L8.40182 9.2884L8.83173 9.06319L8.38508 9.14724L7.47305 9.54253Z" fill="#000088"/>
<path d="M8.712 11.0901C8.70868 11.1507 8.74284 11.1963 8.78831 11.1919C8.83378 11.1875 8.87334 11.1347 8.87667 11.0741C8.87999 11.0135 8.84583 10.9679 8.80036 10.9723C8.75489 10.9767 8.71533 11.0295 8.712 11.0901Z" fill="#000088"/>
<path d="M7.43002 8.93226L8.36307 9.02832L8.81487 9.06786L8.37322 9.01992L7.43002 8.93226Z" fill="#000088"/>
<path d="M8.31341 10.9254C8.30288 10.9931 8.33187 11.0545 8.37816 11.0626C8.42445 11.0708 8.47052 11.0225 8.48105 10.9549C8.49158 10.8873 8.46259 10.8259 8.4163 10.8177C8.37001 10.8096 8.32394 10.8578 8.31341 10.9254Z" fill="#000088"/>
<path d="M7.46755 8.79126L8.3925 8.88004L8.83721 8.60316L8.39826 8.44764L7.46755 8.79126Z" fill="#000088"/>
<path d="M7.97728 10.5931C7.95166 10.6342 7.95957 10.7001 7.99494 10.7404C8.03031 10.7806 8.07975 10.78 8.10536 10.739C8.13097 10.698 8.12306 10.6321 8.08769 10.5918C8.05232 10.5515 8.00289 10.5521 7.97728 10.5931Z" fill="#000088"/>
<path d="M7.63232 7.941L8.43264 8.63656L8.84801 8.88907L8.47906 8.52993L7.63232 7.941Z" fill="#000088"/>
<path d="M7.70301 10.1842C7.66828 10.2134 7.66141 10.2793 7.68767 10.3314C7.71392 10.3834 7.76336 10.402 7.79808 10.3727C7.83281 10.3435 7.83968 10.2776 7.81342 10.2255C7.78717 10.1734 7.73773 10.1549 7.70301 10.1842Z" fill="#000088"/>
<path d="M7.88495 7.50467L8.51842 8.45025L8.87429 8.84081L8.59187 8.36934L7.88495 7.50467Z" fill="#000088"/>
<path d="M7.5197 9.69409C7.47688 9.70931 7.45352 9.77074 7.46752 9.83127C7.48152 9.89181 7.52759 9.92854 7.57041 9.91332C7.61324 9.89809 7.6366 9.83667 7.62259 9.77613C7.60859 9.71559 7.56252 9.67886 7.5197 9.69409Z" fill="#000088"/>
<path d="M8.21874 7.17118L8.63041 8.302L8.90429 8.8024L8.73588 8.25041L8.21874 7.17118Z" fill="#000088"/>
<path d="M7.43535 9.15856C7.38836 9.15734 7.35173 9.20811 7.35354 9.27196C7.35534 9.3358 7.3949 9.38855 7.44189 9.38976C7.48888 9.39098 7.52551 9.34021 7.52371 9.27636C7.5219 9.21252 7.48235 9.15977 7.43535 9.15856Z" fill="#000088"/>
<path d="M8.61569 6.96053L8.75357 8.20017L8.93042 8.77933L8.90421 8.18508L8.61569 6.96053Z" fill="#000088"/>
<path d="M7.44788 8.62965C7.40418 8.61777 7.36463 8.65125 7.35953 8.70443C7.35443 8.75762 7.38572 8.81036 7.42942 8.82224C7.47312 8.83412 7.51268 8.80064 7.51778 8.74745C7.52287 8.69427 7.49158 8.64152 7.44788 8.62965Z" fill="#000088"/>
<path d="M9.04589 6.92233L8.97566 8.12991L8.9544 8.73781L8.99216 8.17443L9.04589 6.92233Z" fill="#000088"/>
<path d="M7.57522 8.10916C7.53509 8.08156 7.48903 8.09822 7.47233 8.14638C7.45563 8.19455 7.47462 8.25597 7.51475 8.28357C7.55487 8.31118 7.60094 8.29451 7.61764 8.24635C7.63434 8.19819 7.61535 8.13677 7.57522 8.10916Z" fill="#000088"/>
<path d="M9.40113 6.97518L9.10672 8.16506L9.05321 8.76454L9.22417 8.20959L9.40113 6.97518Z" fill="#000088"/>
<path d="M7.79884 7.64933C7.76459 7.60794 7.71516 7.60675 7.68842 7.64667C7.66169 7.68659 7.66778 7.7525 7.70203 7.79389C7.73628 7.83528 7.78571 7.83648 7.81244 7.79656C7.83918 7.75664 7.83309 7.69072 7.79884 7.64933Z" fill="#000088"/>
<path d="M9.7871 7.19292L9.268 8.22093L9.09057 8.78064L9.3625 8.31602L9.7871 7.19292Z" fill="#000088"/>
<path d="M8.10611 7.28322C8.08096 7.22991 8.03153 7.2094 7.99569 7.2374C7.95985 7.2654 7.95118 7.33131 7.97632 7.38462C8.00147 7.43793 8.0509 7.45844 8.08674 7.43044C8.12258 7.40244 8.13125 7.33652 8.10611 7.28322Z" fill="#000088"/>
<path d="M10.1185 7.53667L9.41041 8.3259L9.12258 8.80874L9.47727 8.47088L10.1185 7.53667Z" fill="#000088"/>
<path d="M8.4736 7.0126C8.45888 6.96288 8.41281 6.9437 8.37071 6.96976C8.3286 6.99581 8.3064 7.05723 8.32112 7.10695C8.33584 7.15666 8.38191 7.17584 8.42402 7.14979C8.46612 7.12373 8.48832 7.06231 8.4736 7.0126Z" fill="#000088"/>
<path d="M10.3678 7.94101L9.52109 8.52976L9.15218 8.88893L9.56756 8.63654L10.3678 7.94101Z" fill="#000088"/>
<path d="M8.87755 6.89912C8.87457 6.84443 8.83501 6.8085 8.78919 6.81887C8.74338 6.82924 8.70866 6.88198 8.71164 6.93668C8.71462 6.99137 8.75418 7.0273 8.8 7.01693C8.84581 7.00656 8.88053 6.95381 8.87755 6.89912Z" fill="#000088"/>
<path d="M10.5272 8.45771L9.59837 8.71127L9.16834 8.93656L9.61497 8.85292L10.5272 8.45771Z" fill="#000088"/>
<path d="M9.28694 6.91321C9.29085 6.85073 9.25763 6.80219 9.21275 6.80479C9.16786 6.80738 9.1283 6.86012 9.12439 6.92259C9.12048 6.98506 9.1537 7.0336 9.19858 7.03101C9.24347 7.02842 9.28303 6.97568 9.28694 6.91321Z" fill="#000088"/>
<path d="M10.568 9.06797L9.63992 8.97183L9.18737 8.93193L9.62554 8.9798L10.568 9.06797Z" fill="#000088"/>
<path d="M9.68662 7.07719C9.69714 7.01103 9.66812 6.9496 9.62181 6.94C9.5755 6.9304 9.52943 6.97626 9.51892 7.04243C9.5084 7.10859 9.53742 7.17001 9.58373 7.17961C9.63004 7.18922 9.67611 7.14336 9.68662 7.07719Z" fill="#000088"/>
<path d="M10.5338 9.24981L9.6056 9.06432L9.16139 9.35577L9.60264 9.57886L10.5338 9.24981Z" fill="#000088"/>
<path d="M10.0244 7.38935C10.0492 7.33862 10.04 7.2727 10.0038 7.24213C9.96766 7.21155 9.91823 7.22789 9.89342 7.27862C9.86862 7.32936 9.87784 7.39527 9.91402 7.42585C9.95019 7.45642 9.99963 7.44008 10.0244 7.38935Z" fill="#000088"/>
<path d="M10.3686 10.0308L9.56638 9.34526L9.15131 9.13932L9.52159 9.50851L10.3686 10.0308Z" fill="#000088"/>
<path d="M10.3002 7.79692C10.3332 7.7572 10.3374 7.69129 10.3094 7.64969C10.2815 7.6081 10.2321 7.60658 10.199 7.64629C10.166 7.68601 10.1618 7.75192 10.1897 7.79351C10.2177 7.83511 10.2671 7.83663 10.3002 7.79692Z" fill="#000088"/>
<path d="M10.118 10.4727L9.47792 9.53517L9.12305 9.18207L9.41005 9.66162L10.118 10.4727Z" fill="#000088"/>
<path d="M10.4876 8.28607C10.5266 8.25982 10.5437 8.1984 10.5259 8.14888C10.5081 8.09937 10.462 8.08051 10.423 8.10676C10.384 8.13301 10.3669 8.19444 10.3847 8.24395C10.4026 8.29347 10.4486 8.31232 10.4876 8.28607Z" fill="#000088"/>
<path d="M9.79169 10.8102L9.35633 9.686L9.08601 9.2164L9.27097 9.77504L9.79169 10.8102Z" fill="#000088"/>
<path d="M10.5742 8.82285C10.6161 8.81133 10.6445 8.75858 10.6377 8.70504C10.6308 8.65151 10.5913 8.61745 10.5493 8.62897C10.5074 8.6405 10.479 8.69324 10.4858 8.74678C10.4927 8.80032 10.5322 8.83438 10.5742 8.82285Z" fill="#000088"/>
<path d="M9.41273 11.0223L9.20879 9.7888L9.0419 9.23798L9.11425 9.83835L9.41273 11.0223Z" fill="#000088"/>
</g>
<defs>
<clipPath id="clip0_3_5326">
<rect width="18" height="18" fill="white"/>
</clipPath>
</defs>
</svg>
