<svg width="20" height="15" viewBox="0 0 20 15" fill="none" xmlns="http://www.w3.org/2000/svg">
<path d="M1.62204 1.06419C1.07058 1.06419 0.623518 1.51125 0.623518 2.06272C0.623518 2.61418 1.07058 3.06124 1.62204 3.06124H17.9615C18.5129 3.06124 18.9601 2.61421 18.9601 2.06272C18.9601 1.51122 18.5129 1.06419 17.9615 1.06419H1.62204ZM1.62204 6.51069C1.07058 6.51069 0.623518 6.95775 0.623518 7.50922C0.623518 8.06068 1.07057 8.50774 1.62204 8.50774H17.9615C18.5129 8.50774 18.9601 8.06071 18.9601 7.50922C18.9601 6.95772 18.5129 6.51069 17.9615 6.51069H1.62204ZM1.62204 11.9572C1.07055 11.9572 0.623518 12.4043 0.623518 12.9557C0.623518 13.5071 1.07055 13.9542 1.62204 13.9542H17.9615C18.513 13.9542 18.9601 13.5071 18.9601 12.9557C18.9601 12.4043 18.513 11.9572 17.9615 11.9572H1.62204Z" fill="white" stroke="white" stroke-width="0.90775" stroke-miterlimit="16"/>
</svg>
